# xmcd CD database file
#
# Track frame offsets:
#	150
#	10845
#	30543
#	52471
#
# Disc length: 1145 seconds
#
# Revision: 0
# Processed by: cddbd v1.5.1PL2 Copyright (c) Steve Scherf et al.
# Submitted via: CDex 1.51
#
DISCID=2e047704
DTITLE=平川地一丁目 - 夢見るジャンプ
DYEAR=2005
DGENRE=J-Pop
TTITLE0=夢見るジャンプ〜みんなのうたver.〜
TTITLE1=中華料理
TTITLE2=夢見るジャンプ〜みんなのうたver.〜（カラオケ
TTITLE3=CCCD
EXTD=YEAR: 2005
EXTT0=
EXTT1=
EXTT2=
EXTT3=
PLAYORDER=
